P3
4
4
120

0 0 0    50 0 0    0 0 0    60 0 60 
0 0 0    0 60 87    0 0 0    0 0 0 
0 0 0    0 0 0    0 7 87    0 0 0 
60 0 60    0 0 0    0 0 0    60 60 60 