P3
4
4
120

1 0 0    100 0 0    0 0 0    120 0 120 
3 0 0    0 120 120    0 0 0    0 0 0 
9 0 0    0 0 0    0 14 120    0 0 0 
72 0 120    0 0 0    0 0 0    120 120 120 